<svg width="20" height="10" viewBox="0 0 20 10" fill="none" xmlns="http://www.w3.org/2000/svg">
<path d="M20 4.70092C19.9934 4.53282 19.9242 4.33852 19.8088 4.21599L16.0441 0.218969C15.789 -0.0100962 15.2998 -0.104657 15.0147 0.160192C14.7339 0.421044 14.7422 0.926945 15.022 1.18883L17.6691 3.99557H0.705882C0.316047 3.99557 0 4.31137 0 4.70092C0 5.09048 0.316047 5.40628 0.705882 5.40628H17.6691L15.022 8.21302C14.7811 8.45412 14.7366 8.97782 15.0147 9.24166C15.2927 9.50547 15.7995 9.42118 16.0441 9.18285L19.8088 5.18586C19.9376 5.04908 20.0004 4.88859 20 4.70092Z" fill="#212529"/>
</svg>
